<svg id="icon-choose-file" xmlns="http://www.w3.org/2000/svg" width="19.414" height="17.846" viewBox="0 0 19.414 17.846">
  <path id="Path_15402" data-name="Path 15402" d="M2978.279,2804.542a4.431,4.431,0,0,0-6.246-.5l-2.006,1.708a4.431,4.431,0,0,0-1.43,4.434l4.8-4.086a1.623,1.623,0,0,1,2.286.2l.428.5a1.622,1.622,0,0,1-.165,2.289l-4.811,4.1a4.431,4.431,0,0,0,4.639-.691l2.006-1.708A4.431,4.431,0,0,0,2978.279,2804.542Z" transform="translate(-2959.922 -2802.983)" fill="#787676"/>
  <path id="Path_15403" data-name="Path 15403" d="M2773.123,2979.219a4.431,4.431,0,0,1,.5-6.246l2.006-1.708a4.43,4.43,0,0,1,4.6-.7l-4.8,4.086a1.622,1.622,0,0,0-.165,2.289l.428.5a1.622,1.622,0,0,0,2.285.2l4.811-4.1a4.431,4.431,0,0,1-1.421,4.469l-2.006,1.708A4.431,4.431,0,0,1,2773.123,2979.219Z" transform="translate(-2772.066 -2962.931)" fill="#787676"/>
  <path id="Path_15404" data-name="Path 15404" d="M2909.539,2936.34a.932.932,0,0,1-1.314-.106h0a.932.932,0,0,1,.105-1.314l5.684-4.839a.932.932,0,0,1,1.314.105h0a.932.932,0,0,1-.105,1.314Z" transform="translate(-2902.086 -2924.337)" fill="#787676"/>
</svg>
