<svg id="icon-home-service-page" xmlns="http://www.w3.org/2000/svg" width="25" height="25" viewBox="0 0 25 25">
  <circle id="Ellipse_4" data-name="Ellipse 4" cx="12.5" cy="12.5" r="12.5" fill="#eb048c"/>
  <path id="Path_11013" data-name="Path 11013" d="M2183.28,2199.95a.639.639,0,0,1-.606.408h-1.246v5.887a.556.556,0,0,1-.566.544h-2.583a.6.6,0,0,1-.593-.6v-3.194a.322.322,0,0,0-.322-.322h-1.719a.321.321,0,0,0-.322.322v3.194a.6.6,0,0,1-.592.6h-2.581a.556.556,0,0,1-.566-.544v-5.887h-1.248a.639.639,0,0,1-.606-.408.581.581,0,0,1,.18-.65l6.251-5.242a.538.538,0,0,1,.685,0l1.524,1.278v-.844a.562.562,0,0,1,.566-.557h1.863a.563.563,0,0,1,.566.557v3.355l1.732,1.453A.582.582,0,0,1,2183.28,2199.95Z" transform="translate(-2163.88 -2187.737)" fill="#fff"/>
</svg>
