<svg id="icon-phone-big" xmlns="http://www.w3.org/2000/svg" width="54.2" height="54.2" viewBox="0 0 54.2 54.2">
  <circle id="Ellipse_4" data-name="Ellipse 4" cx="27.1" cy="27.1" r="27.1" fill="#eb048c"/>
  <g id="phone" transform="translate(13.334 13.305)">
    <g id="Group_6" data-name="Group 6" transform="translate(0 0)">
      <path id="Path_203" data-name="Path 203" d="M27.35,20.248,23.5,16.4a2.561,2.561,0,0,0-4.263.963,2.62,2.62,0,0,1-3.025,1.65c-2.75-.688-6.463-4.263-7.151-7.151a2.492,2.492,0,0,1,1.65-3.025,2.561,2.561,0,0,0,.963-4.263L7.823.722a2.746,2.746,0,0,0-3.713,0L1.5,3.335c-2.613,2.75.275,10.038,6.738,16.5s13.751,9.488,16.5,6.738l2.613-2.613A2.746,2.746,0,0,0,27.35,20.248Z" transform="translate(-0.539 0)" fill="#fff"/>
    </g>
  </g>
</svg>
