<svg xmlns="http://www.w3.org/2000/svg" width="30" height="30" viewBox="0 0 30 30">
  <g id="icon-phone-contact" transform="translate(-4249.04 -764.04)">
    <circle id="Ellipse_4" data-name="Ellipse 4" cx="15" cy="15" r="15" transform="translate(4249.04 764.04)" fill="#eb048c"/>
    <g id="phone" transform="translate(4256.42 771.404)">
      <g id="Group_6" data-name="Group 6" transform="translate(0 0)">
        <g id="Group_5524" data-name="Group 5524" transform="translate(-802.303 -775.865)">
          <path id="Path_14952" data-name="Path 14952" d="M1790.626,2804.432a1.754,1.754,0,1,0,1.754,1.754A1.756,1.756,0,0,0,1790.626,2804.432Z" transform="translate(-980.703 -2014.249)" fill="#fff"/>
          <path id="Path_14953" data-name="Path 14953" d="M818.837,781.894h-.091a8.815,8.815,0,0,0-8.584-8.58l-.24,0-.24,0a8.815,8.815,0,0,0-8.584,8.58h-.091a1.055,1.055,0,0,0-1.054,1.054v4.386a1.055,1.055,0,0,0,1.054,1.054h1.142a1.055,1.055,0,0,0,1.054-1.054v-4.386a1.055,1.055,0,0,0-1.054-1.054h-.084a7.86,7.86,0,0,1,15.712,0h-.084a1.055,1.055,0,0,0-1.054,1.054v4.386a1.055,1.055,0,0,0,1.054,1.054h1.142a1.055,1.055,0,0,0,1.054-1.054v-4.386A1.055,1.055,0,0,0,818.837,781.894Z" transform="translate(0 0)" fill="#fff"/>
          <path id="Path_14954" data-name="Path 14954" d="M2159.513,2530.435a3.312,3.312,0,0,1-3.308,3.308h-3.281v.967h3.521v-.007a4.272,4.272,0,0,0,4.035-4.268v-.24h-.967Z" transform="translate(-1341.731 -1742.29)" fill="#fff"/>
          <path id="Path_14955" data-name="Path 14955" d="M1387.482,1216.137a5.161,5.161,0,0,0-7.756,6.776,5.2,5.2,0,0,0,2.572,1.8l1.323,2.292a.244.244,0,0,0,.422,0l1.323-2.292a5.2,5.2,0,0,0,2.572-1.8,5.162,5.162,0,0,0-.457-6.776Zm-3.65-.057a1.7,1.7,0,1,1-1.7,1.7A1.7,1.7,0,0,1,1383.832,1216.08Zm2.78,6.414a.243.243,0,0,1-.243.243H1381.3a.243.243,0,0,1-.243-.243v-.395a2.254,2.254,0,0,1,2.252-2.252h1.056a2.254,2.254,0,0,1,2.252,2.252Z" transform="translate(-573.91 -437.648)" fill="#fff"/>
        </g>
      </g>
    </g>
  </g>
</svg>
