<svg xmlns="http://www.w3.org/2000/svg" width="30" height="30" viewBox="0 0 30 30">
  <g id="icon-phone-small" transform="translate(-4249.04 -764.04)">
    <circle id="Ellipse_4" data-name="Ellipse 4" cx="15" cy="15" r="15" transform="translate(4249.04 764.04)" fill="#eb048c"/>
    <g id="phone" transform="translate(4256.42 771.404)">
      <g id="Group_6" data-name="Group 6" transform="translate(0 0)">
        <path id="Path_203" data-name="Path 203" d="M15.379,11.208,13.248,9.076a1.417,1.417,0,0,0-2.359.533,1.45,1.45,0,0,1-1.674.913A6.572,6.572,0,0,1,5.256,6.565,1.379,1.379,0,0,1,6.169,4.89,1.417,1.417,0,0,0,6.7,2.531L4.571.4A1.52,1.52,0,0,0,2.516.4L1.07,1.846C-.377,3.368,1.222,7.4,4.8,10.979s7.611,5.252,9.133,3.73l1.446-1.446A1.52,1.52,0,0,0,15.379,11.208Z" transform="translate(-0.539 0)" fill="#fff"/>
      </g>
    </g>
  </g>
</svg>
