<svg xmlns="http://www.w3.org/2000/svg" width="30" height="30" viewBox="0 0 30 30">
  <g id="icon-message" transform="translate(0.267 -0.093)">
    <rect id="Rectangle_11" data-name="Rectangle 11" width="30" height="30" rx="15" transform="translate(-0.267 0.093)" fill="#eb048c"/>
    <path id="Path_14915" data-name="Path 14915" d="M391.823,177.7l-6.525-4.066a1.849,1.849,0,0,0-1.956,0l-6.525,4.066a1.676,1.676,0,0,0-.8,1.419v7.951a1.707,1.707,0,0,0,1.729,1.684h13.142a1.707,1.707,0,0,0,1.729-1.684v-7.951A1.676,1.676,0,0,0,391.823,177.7Zm-9.628,6.716-4.042,3.144a.561.561,0,0,1-.69-.886l4.042-3.144a.561.561,0,1,1,.69.886Zm1.591-1.319-5.12-3.626a.7.7,0,0,1,.425-1.274H389.55a.7.7,0,0,1,.425,1.274l-5.12,3.626A.925.925,0,0,1,383.786,183.1Zm7.49,4.365a.561.561,0,0,1-.788.1l-4.042-3.144a.561.561,0,1,1,.69-.886l4.042,3.144A.561.561,0,0,1,391.276,187.465Zm-4.934-8.205h-3.593a.674.674,0,1,0,0,1.347h3.593a.674.674,0,1,0,0-1.347Z" transform="translate(-369.587 -165.964)" fill="#fff"/>
  </g>
</svg>
