<svg xmlns="http://www.w3.org/2000/svg" width="435.907" height="496.879" viewBox="0 0 435.907 496.879">
  <g id="image-lao-country" transform="translate(-5645.461 -4145.458)">
    <path id="Path_15332" data-name="Path 15332" d="M6080.484,4565.669c.067-.171.487-.291.583-.446a3.07,3.07,0,0,0,.292-1.492,2.957,2.957,0,0,0-.429-.892,6.9,6.9,0,0,0-.978-1.114c-.461-.388-1.617-.84-2.058-1.252-.256-.24-.576-.883-.806-1.148-.139-.161-.512-.4-.616-.583a3.355,3.355,0,0,1-.36-1.561c.037-.289.608-.743.548-1.029-.063-.3-.672-.709-.977-.771-.388-.08-1.132.422-1.526.412a5.555,5.555,0,0,1-1.526-.5c-.275-.122-.9-.335-1.046-.6-.164-.3.077-1.028.068-1.372-.01-.4-.135-1.194-.154-1.595-.01-.223.2-.793,0-.891-.225-.11-.54.587-.789.617-.186.023-.521-.217-.686-.308a8.88,8.88,0,0,0-1.217-.823,6.884,6.884,0,0,0-1.664.052,8.347,8.347,0,0,1-1.319.085,2.194,2.194,0,0,1-.943-.394c-.205-.215-.239-.872-.412-1.114-.234-.334-1.036-.7-1.251-1.046a13.707,13.707,0,0,1-.5-2.058,8.171,8.171,0,0,0-.771-1.594,9.672,9.672,0,0,0-1.372-1.269c-.224-.179-.658-.62-.943-.652s-.789.438-1.079.429a1.883,1.883,0,0,1-1-.463,2.235,2.235,0,0,1-.412-1.3c.037-.25.526-.59.566-.84a3.3,3.3,0,0,0-.395-1.406,3.148,3.148,0,0,0-.857-1.183c-.339-.176-1.172.127-1.525-.018a2.1,2.1,0,0,1-.908-.875,2.805,2.805,0,0,1,.206-1.56c.091-.191.5-.421.582-.617a4,4,0,0,0,.034-1.44c-.034-.342-.406-1.009-.309-1.337a2.147,2.147,0,0,1,.874-.84c.283-.149.967-.114,1.252-.257.308-.154.707-.791,1.029-.909.2-.074.666.114.857.018.29-.146.511-.847.754-1.063a4.262,4.262,0,0,1,1.166-.634,7.469,7.469,0,0,1,2.144-.24c.275.023.8.391,1.063.308.326-.1.624-.813.857-1.062a17.668,17.668,0,0,0,1.338-1.234,4.169,4.169,0,0,0,.634-1.509c.02-.247-.288-.717-.24-.96.082-.4.826-.925.978-1.3.108-.269.053-.872.138-1.149.071-.235.473-.63.445-.875-.04-.359-.8-.775-.926-1.114a1.972,1.972,0,0,1-.034-1.115c.1-.215.672-.372.737-.6a1.175,1.175,0,0,0-.309-.909,1.266,1.266,0,0,0-.926-.034c-.164.072-.3.464-.463.548-.3.157-1.036-.012-1.337.137-.237.118-.471.688-.722.771s-.8-.238-1.062-.188c-.212.04-.53.385-.737.446a2.845,2.845,0,0,1-1.7.052c-.209-.132-.269-.7-.395-.909a6.615,6.615,0,0,0-.993-1.286c-.332-.281-1.221-.517-1.527-.823-.23-.231-.376-.931-.617-1.149a4.331,4.331,0,0,0-1.114-.463,3.813,3.813,0,0,0-1.062-.36c-.355.015-.95.6-1.3.566-.333-.035-.8-.621-1.1-.771a12.912,12.912,0,0,1-1.492-.5,2.3,2.3,0,0,1-.634-.875,2.091,2.091,0,0,1,.033-.754c.047-.233.281-.659.326-.892.072-.37.014-1.132.052-1.509.03-.311.3-.936.206-1.235-.133-.418-.909-.956-1.235-1.251a10.21,10.21,0,0,0-1.062-.857,6.4,6.4,0,0,0-1.234-.565,8.316,8.316,0,0,0-1.7-.171c-.5.007-1.5.25-2,.257a4.321,4.321,0,0,1-1.075-.1c-.19-.062-.485-.4-.686-.412-.259-.014-.681.4-.937.435a1.413,1.413,0,0,1-.892-.161c-.2-.207-.19-.854-.184-1.144.007-.245.245-.717.206-.96a1.858,1.858,0,0,0-.479-.823c-.233-.2-.877-.283-1.144-.434s-.733-.588-.983-.777a10.852,10.852,0,0,1-1.874-1.371,6.24,6.24,0,0,1-.343-1.052c-.1-.242-.456-.677-.457-.937,0-.241.4-.629.411-.869.019-.281-.347-.793-.343-1.074,0-.309.371-.86.412-1.166a3.4,3.4,0,0,0-.1-1.348,3.356,3.356,0,0,0-.96-1.029,2.689,2.689,0,0,0-.983-.354,2.105,2.105,0,0,0-1.2.3c-.211.208-.208.861-.3,1.143-.083.265-.339.767-.388,1.041-.037.2.092.647,0,.833-.082.165-.437.336-.583.446-.179.134-.5.479-.72.525-.2.042-.593-.217-.789-.171a1.537,1.537,0,0,0-.731.583c-.094.177-.021.6-.058.8a5.689,5.689,0,0,1-.354,1.131c-.076.151-.223.505-.388.6a.162.162,0,0,1-.069.022c-.311.016-.562-.788-.846-.915a5.407,5.407,0,0,0-1.188-.023,4.794,4.794,0,0,1-.949-.206,2.24,2.24,0,0,1-.812-.5c-.183-.272-.136-.978-.227-1.292s-.415-.9-.5-1.223c-.064-.231-.017-.749-.148-.949-.108-.163-.576-.237-.663-.411a1.618,1.618,0,0,1,.081-.926c.11-.31.652-.769.742-1.086a4.133,4.133,0,0,0-.057-1.223,1.8,1.8,0,0,0-.161-.743c-.225-.254-.99-.271-1.279-.446s-.7-.77-1-.938c-.41-.23-1.414-.259-1.817-.5a4.309,4.309,0,0,1-1.246-1.315c-.187-.381-.122-1.279-.263-1.68-.106-.3-.58-.8-.641-1.12a9.991,9.991,0,0,1,.206-1.429c0-.44-.191-1.309-.217-1.75-.048-.83.032-2.494.022-3.326-.013-1.132-.073-3.4-.137-4.527-.047-.83-.248-2.483-.275-3.314a17.924,17.924,0,0,0,.047-2.354c-.051-.24-.185-.8-.412-.892-.2-.082-.637.161-.8.3-.188.158-.3.706-.5.846a2.836,2.836,0,0,1-1.509.274,9.076,9.076,0,0,1-1.532-.777,8.7,8.7,0,0,1-1.439-.5,4.349,4.349,0,0,1-.9-1.228c-.023-.043-.042-.084-.059-.121a16.089,16.089,0,0,1-.48-2.012,7.379,7.379,0,0,0-.457-1.6,10.1,10.1,0,0,0-1.144-1.005,16.36,16.36,0,0,1-1.188-1.44c-.294-.415-.747-1.332-1.053-1.738-.283-.378-1.036-.988-1.279-1.394a3.253,3.253,0,0,1-.549-1.555c.059-.34.792-.737.868-1.074a1.546,1.546,0,0,0-.229-.983c-.14-.167-.681-.16-.8-.343-.205-.316.134-1.148.023-1.508a2.577,2.577,0,0,0-.847-1.211,1.3,1.3,0,0,0-1,.022c-.272.217-.314,1-.344,1.349-.018.218.169.675.069.869a1.862,1.862,0,0,1-1.075.641,4.183,4.183,0,0,1-1.555-.435,10.9,10.9,0,0,1-1.691-.983c-.535-.4-1.452-1.378-1.943-1.829-.655-.6-1.95-1.83-2.651-2.377-.609-.477-1.981-1.226-2.561-1.738a28.7,28.7,0,0,1-2.4-2.744c-.374-.465-1.037-1.46-1.417-1.92-.536-.649-1.754-1.818-2.286-2.469-.656-.8-1.779-2.55-2.424-3.36a31.2,31.2,0,0,0-2.721-3.109,32.109,32.109,0,0,0-3.154-2.126,6.74,6.74,0,0,0-1.669-.982c-.288-.048-.86.3-1.144.229a1.99,1.99,0,0,1-.937-.777c-.247-.5.141-1.714-.092-2.218-.173-.375-.931-.819-1.211-1.121-.437-.466-1.2-1.489-1.6-1.989-.271-.341-.966-.95-1.073-1.372-.09-.348.283-1.063.228-1.417a3.271,3.271,0,0,0-.617-1.212,14.875,14.875,0,0,0-1.715-1.165,6.045,6.045,0,0,1-1.394-1.235,2.485,2.485,0,0,1-.184-1.371c.155-.521,1.22-1.141,1.418-1.646a3.453,3.453,0,0,0,.045-1.44,4.289,4.289,0,0,0-.777-1.691c-.319-.317-1.31-.431-1.646-.732a5.755,5.755,0,0,1-1.052-1.806c-.145-.4-.022-1.345-.274-1.692-.212-.292-.99-.447-1.28-.663a4.379,4.379,0,0,1-.868-.892c-.227-.371-.226-1.357-.549-1.646-.227-.2-.982-.029-1.188-.251s-.138-.907-.16-1.212c-.029-.4.06-1.226-.023-1.623-.072-.346-.233-1.142-.548-1.3-.183-.094-.6.2-.8.182a3.346,3.346,0,0,1-1.052-.388c-.2-.112-.483-.534-.708-.572a1.843,1.843,0,0,0-1.235.458c-.146.174-.116.67-.159.892a5.643,5.643,0,0,1-.3,1.462c-.146.241-.588.715-.868.709-.336-.007-.687-.785-1.006-.892s-1.074.253-1.395.114c-.377-.162-.7-1.037-1.029-1.28-.162-.121-.649-.124-.754-.3-.237-.394.23-1.369.205-1.828-.022-.421-.007-1.425-.365-1.646-.16-.1-.546.147-.731.183a4.752,4.752,0,0,1-.983.137,3.269,3.269,0,0,1-1.188-.388,4.533,4.533,0,0,1-.794-.992c-.044-.065-.085-.125-.12-.174a10.12,10.12,0,0,0-1.006-1.555,6.476,6.476,0,0,0-1.166-.5,4.774,4.774,0,0,1-1.189-.594,2.241,2.241,0,0,1-.479-1.144c.006-.327.484-.867.549-1.188a2.338,2.338,0,0,0-.046-1.211,1.515,1.515,0,0,0-.755-.458c-.319-.071-1.009.282-1.3.138-.267-.131-.435-.776-.618-1.006-.279-.352-1.061-.866-1.281-1.258a4.737,4.737,0,0,1-.343-1.463c-.031-.4.1-1.217.114-1.623a17.974,17.974,0,0,1,0-2.674c.092-.375.592-1,.709-1.372.136-.424.127-1.334.252-1.761a4.226,4.226,0,0,1,.731-1.6,2.348,2.348,0,0,1,1.417-.412c.133.024.3.315.435.32a.937.937,0,0,0,.525-.32,2.3,2.3,0,0,0,.436-1.211,2.843,2.843,0,0,0-.778-1.3c-.233-.21-.9-.323-1.143-.526a3.764,3.764,0,0,1-.641-.937c-.194-.395-.135-1.521-.548-1.669-.242-.086-.624.475-.869.548a7.1,7.1,0,0,1-1.212.023c-.4.024-1.223.338-1.577.16-.3-.149-.41-.955-.686-1.143-.354-.243-1.34-.052-1.692-.3-.232-.163-.326-.839-.571-.983a2.022,2.022,0,0,0-1.051-.023c-.49.1-1.338.889-1.83.8-.273-.05-.564-.627-.8-.777-.272-.173-1.021-.2-1.211-.458-.226-.311.127-1.2-.068-1.531a1.84,1.84,0,0,0-1.029-.617c-.637-.069-1.786.76-2.424.823a10.391,10.391,0,0,1-3.154-.412c-.439-.144-1.175-.777-1.623-.892-.5-.128-1.6.23-2.058,0-.248-.125-.5-.669-.663-.892-.233-.314-.587-1.081-.937-1.257-.4-.2-1.39.21-1.783,0-.315-.168-.551-.93-.8-1.188a5.5,5.5,0,0,0-1.028-.755,11.735,11.735,0,0,1-1.372-.5c-.288-.226-.539-.981-.822-1.212-.245-.2-.949-.252-1.166-.48-.164-.171-.181-.7-.321-.892-.343-.47-1.518-.94-1.851-1.418-.254-.362-.238-1.355-.526-1.69-.161-.188-.685-.3-.892-.435-.3-.2-.746-.8-1.074-.937a3.125,3.125,0,0,0-1.577-.115c-.295.093-.677.657-.96.777a2.588,2.588,0,0,1-1.509.184c-.432-.2-.813-1.168-1.053-1.577a17.881,17.881,0,0,0-.823-1.624,7.772,7.772,0,0,0-1.531-1.325,10.612,10.612,0,0,0-1.577-.664,7.906,7.906,0,0,1-1.83-.525c-.292-.232-.473-1.033-.729-1.3a3.554,3.554,0,0,0-1.166-.732,4.513,4.513,0,0,0-.984,0c-.5.008-1.58.354-1.988.069a.862.862,0,0,1-.26-.428,8.735,8.735,0,0,1-.221-1.035c-.051-.248.058-.8-.091-1.006s-.685-.219-.869-.365c-.291-.232-.564-1-.868-1.212a11.087,11.087,0,0,0-1.807-.526,16.07,16.07,0,0,1-2.194-1.142c-.3-.2-.783-.747-1.1-.916a5.182,5.182,0,0,0-1.3-.388,6.824,6.824,0,0,0-1.578.023c-.439.075-1.248.622-1.691.571-.515-.06-1.318-.825-1.76-1.1a4.5,4.5,0,0,1-.937-.572c-.2-.245-.21-.966-.435-1.188-.182-.18-.757-.189-.96-.343s-.363-.669-.572-.8c-.3-.192-1.087-.108-1.417-.252-.183-.08-.6-.283-.64-.48-.033-.179.255-.494.388-.617a4.559,4.559,0,0,1,1.144-.594c.374-.142,1.243-.137,1.555-.389.213-.172.295-.783.48-.982s.77-.3.892-.526c.134-.254-.177-.878-.069-1.143s.545-.729.823-.755c.256-.022.612.566.869.549.319-.021.682-.713.982-.823.193-.07.625.056.823,0,.264-.074.669-.514.937-.571.412-.088,1.338.464,1.67.206.214-.166.157-.8.137-1.075s-.321-.779-.3-1.051a2.664,2.664,0,0,1,.412-.845,8.877,8.877,0,0,1,.954-1.161c.249-.242.947-.543,1.1-.857a3.35,3.35,0,0,0-.017-1.166,5.305,5.305,0,0,0-.086-1.44c-.086-.2-.511-.435-.6-.634-.1-.216.056-.753-.086-.943-.188-.251-.92-.269-1.166-.463-.269-.211-.539-.881-.789-1.115-.2-.185-.757-.353-.926-.566a2.066,2.066,0,0,1-.343-1.046c.021-.31.558-.8.548-1.114-.008-.267-.5-.66-.531-.926a1.66,1.66,0,0,1,.378-1.2c.2-.127.729.031.943.137.295.147.643.788.942.926.324.148,1.084.006,1.423.12.183.061.465.364.652.412a2.086,2.086,0,0,0,1.354-.086c.217-.177.175-.827.292-1.08a1.633,1.633,0,0,1,.411-.6,4.133,4.133,0,0,1,1.44-.1,5.333,5.333,0,0,0,.909,0,1.155,1.155,0,0,0,.264-.123,7.724,7.724,0,0,1,.953-.6,3,3,0,0,1,1.218-.138c.3.073.734.59,1.028.686a11.72,11.72,0,0,0,1.372.052,3.1,3.1,0,0,1,1.063.291c.258.19.468.846.687,1.08.112.122.366.4.531.395.379-.014.848-.763,1.148-.995.242-.186.776-.49,1.012-.686.277-.231.671-.912,1.012-1.029a1.507,1.507,0,0,1,1.046.137c.224.18.269.822.395,1.08a3.045,3.045,0,0,0,.5.806c.155.129.582.187.754.291.294.179.7.8,1.029.909.3.1.953-.166,1.269-.12a4.2,4.2,0,0,1,1.166.515,7.165,7.165,0,0,0,.669.908,4.8,4.8,0,0,0,1.492,1.148,3.228,3.228,0,0,0,1.68-.257c.264-.137.551-.737.823-.857a2.374,2.374,0,0,1,1.028-.035c.341.06.94.483,1.286.515a2.29,2.29,0,0,0,1.2-.24,2.78,2.78,0,0,0,.583-1.183c.062-.237-.05-.755.051-.978s.586-.47.7-.686c.15-.276.091-.966.257-1.235.12-.194.591-.376.72-.566.106-.154.127-.558.224-.719a7.4,7.4,0,0,1,.616-.635c.26-.308.555-1.2.943-1.3.179-.046.485.29.669.309a2.909,2.909,0,0,0,1.405-.326c.321-.21.625-.978.909-1.234a2.442,2.442,0,0,1,.926-.548c.19-.026.546.2.737.206a3.417,3.417,0,0,0,1.938-.446,3.226,3.226,0,0,0,.325-1.7,4.165,4.165,0,0,0-.222-1.269,3.857,3.857,0,0,0-.979-1.3,2.46,2.46,0,0,0-.977-.24c-.2,0-.591.189-.789.155a1.388,1.388,0,0,1-.634-.378,1.527,1.527,0,0,1-.172-.771c.034-.085.562-.635.737-.856.207-.261.524-.857.754-1.1a9.485,9.485,0,0,1,1.887-1.423c.351-.179,1.156-.284,1.509-.463a4.476,4.476,0,0,0,1.012-.754,5.8,5.8,0,0,0,.548-.978c.134-.268.191-1.019.48-1.1.267-.073.657.5.892.651a2.329,2.329,0,0,0,.721.377c.158.012.445-.17.6-.206.441-.1,1.417.021,1.8-.223a2.327,2.327,0,0,0,.686-1.1,7.367,7.367,0,0,0-.138-1.269,6.2,6.2,0,0,0,.068-.789c-.043-.248-.383-.662-.428-.909a1.5,1.5,0,0,1,.068-.874c.11-.146.553-.133.686-.258.189-.177.529-.7.429-.943-.129-.306-.988-.243-1.251-.446-.145-.111-.269-.487-.412-.6a2.955,2.955,0,0,0-.549-.206c-.3-.125-.987-.288-1.183-.549a1.376,1.376,0,0,1-.138-.874c.069-.252.534-.582.669-.806.115-.191.39-.6.343-.823-.041-.2-.4-.475-.583-.549s-.591.069-.771,0c-.307-.117-.708-.686-.977-.874a17.219,17.219,0,0,0-1.767-.96,9.981,9.981,0,0,0-1.852-.823,5.223,5.223,0,0,0-1.835.086,6.668,6.668,0,0,0-1.44.857c-.208.152-.528.6-.771.686a3.131,3.131,0,0,1-1.611-.069c-.2-.08-.479-.457-.669-.565a4.654,4.654,0,0,0-1.234-.429c-.238-.034-.748.164-.96.051a.949.949,0,0,1-.378-.634c.019-.243.556-.519.618-.754.067-.261-.2-.793-.188-1.063a2.878,2.878,0,0,1,.377-1.406c.256-.276,1.213-.185,1.423-.5.185-.275-.01-1-.068-1.321a3.614,3.614,0,0,0-.377-1.183,7.61,7.61,0,0,0-1.526-.994,18.3,18.3,0,0,1-1.68-1.166,8.84,8.84,0,0,1-1-1.2c-.177-.263-.349-.922-.6-1.115a1.841,1.841,0,0,0-.873-.206,6.911,6.911,0,0,0-1.013.274,12.524,12.524,0,0,1-1.286.24c-.448.039-1.35-.021-1.8-.017a11.1,11.1,0,0,1-2.194.052c-.223-.06-.566-.416-.789-.48a11.544,11.544,0,0,0-1.577-.017,6.039,6.039,0,0,1-1.2-.206c-.315-.119-.848-.552-1.149-.7a5.084,5.084,0,0,1-.857-.343,2.39,2.39,0,0,1-.548-.943,1.567,1.567,0,0,1,.051-.84,2.02,2.02,0,0,1,.755-.514c.246-.112.8-.158,1.046-.274a7.073,7.073,0,0,0,.755-.566,9.27,9.27,0,0,0,1.1-.789c.171-.187.358-.675.515-.875a2.682,2.682,0,0,1,.6-.583,3.457,3.457,0,0,1,1.149-.223,6.22,6.22,0,0,1,1.886.292c.251.106.6.611.874.652a3.122,3.122,0,0,0,1.406-.5,3.024,3.024,0,0,0,.927-.771c.087-.159.038-.55.1-.72.126-.34.647-.884.788-1.218.076-.178.074-.587.172-.754a7.569,7.569,0,0,1,1.045-.96,11.376,11.376,0,0,0,.943-1.046,3.139,3.139,0,0,0,.5-.909,2.39,2.39,0,0,0-.136-.891,1.913,1.913,0,0,0-.429-.737,3.834,3.834,0,0,0-1.613-.274c-.284,0-.862.25-1.131.154s-.559-.611-.754-.806c-.157-.156-.48-.461-.652-.6a4.175,4.175,0,0,0-1.1-.772c-.27-.065-.826.208-1.1.154s-.884-.317-1-.583c-.085-.2.2-.637.224-.858a3.173,3.173,0,0,0-.068-1.217,1.987,1.987,0,0,0-.669-.652,4.39,4.39,0,0,0-1.218-.275c-.268-.03-.812.04-1.08,0-.221-.032-.637-.214-.857-.257-.24-.045-.811.1-.978-.085-.1-.11.025-.452,0-.6a2.752,2.752,0,0,0-.257-.72,4.929,4.929,0,0,0-.942-1.029,6.446,6.446,0,0,0-.652-.326,5.208,5.208,0,0,1-.856-.5c-.156-.145-.339-.544-.48-.7-.182-.2-.677-.475-.823-.7s-.183-.829-.309-1.08a5.349,5.349,0,0,0-.789-1.029,5.446,5.446,0,0,0-.822-.617,3.051,3.051,0,0,0-1.028-.446,3.87,3.87,0,0,0-.857.326c-.236.073-.737.346-.96.24s-.291-.665-.412-.875a5.447,5.447,0,0,0-.771-1.1,6.581,6.581,0,0,0-1.062-.531,9.256,9.256,0,0,0-.909-.463,5.455,5.455,0,0,0-1.406-.24c-.229.007-.665.233-.892.206a2.45,2.45,0,0,1-.771-.395c-.22-.152-.546-.608-.789-.72a2.1,2.1,0,0,0-1.114-.137c-.162.052-.359.364-.5.463-.163.116-.527.284-.7.377a4.194,4.194,0,0,0-.857.445,2.749,2.749,0,0,0-.343.72c-.062.16-.13.5-.206.652a4.472,4.472,0,0,1-.6.84,2.3,2.3,0,0,1-.771.583,2.972,2.972,0,0,1-1.132-.241c-.228-.074-.64-.343-.874-.394a1.968,1.968,0,0,0-.893,0c-.246.111-.506.64-.72.806a3.45,3.45,0,0,1-.926.48c-.295.076-.917-.018-1.218.035a8.178,8.178,0,0,0-1.1.36,5.227,5.227,0,0,0-1.1.463,3.111,3.111,0,0,0-.6.806c-.107.212-.073.783-.274.909-.159.1-.57-.037-.737-.12-.282-.141-.606-.787-.909-.875a1.916,1.916,0,0,0-1.269.257,1.951,1.951,0,0,0-.445,1.029c-.019.2.246.6.188.789-.076.252-.611.51-.772.72a2.686,2.686,0,0,0-.325.618,3.474,3.474,0,0,0-.12.977c.022.28.281.8.309,1.08a1.951,1.951,0,0,1-.086,1c-.223.312-1.041.5-1.405.617-.205.067-.636.122-.841.188-.174.057-.562.144-.669.292a1.814,1.814,0,0,0-.086.909c.024.271.284.774.292,1.045a2.57,2.57,0,0,1-.273,1.235,2.536,2.536,0,0,1-.961.463,4.964,4.964,0,0,1-1.577-.188c-.35-.2-.729-.971-.96-1.3a12.778,12.778,0,0,0-.943-1.44,15.051,15.051,0,0,0-1.577-1.012,9.079,9.079,0,0,0-1.184-.909,6.888,6.888,0,0,0-2.212-.274c-.426.021-1.246.469-1.663.377a2.106,2.106,0,0,1-.856-.669c-.221-.294-.3-1.085-.532-1.371-.164-.206-.729-.364-.874-.583s-.093-.773-.188-1.013c-.117-.29-.386-.958-.686-1.045-.213-.062-.644.211-.807.359-.253.232-.423.961-.668,1.2a2.668,2.668,0,0,1-.909.48,5.268,5.268,0,0,1-2.126.018c-.326-.1-.794-.673-1.114-.79a2.1,2.1,0,0,0-.623-.057,2.968,2.968,0,0,1-.749-.046,9.675,9.675,0,0,1-1.457-.857,6.409,6.409,0,0,0-1.44-.875,7.551,7.551,0,0,0-1.561.309,4.826,4.826,0,0,1-1.491.051c-.374-.118-.887-.8-1.252-.943-.261-.1-.851-.01-1.114-.1a13.316,13.316,0,0,1-1.595-1.063c-.254-.151-.8-.384-1.046-.549a5.527,5.527,0,0,1-1.543-1.3c-.191-.367-.039-1.25-.154-1.646a11.9,11.9,0,0,0-.892-1.731c-.3-.545-1-1.582-1.269-2.144-.223-.462-.483-1.466-.721-1.92a5.342,5.342,0,0,0-1.114-1.612,6.806,6.806,0,0,0-1.7-.36,5,5,0,0,1-1.44-.395,1.374,1.374,0,0,1-.395-.652c-.057-.365.441-1.083.343-1.439s-.868-.749-1.046-1.081a.7.7,0,0,1-.064-.192,3.841,3.841,0,0,0-.21-1.059c-.236-.333-1.105-.564-1.389-.857a4.091,4.091,0,0,1-.96-1.68c-.048-.408.485-1.167.463-1.578a2.623,2.623,0,0,0-.48-1.148,2.93,2.93,0,0,0-1.269-.79c-.527-.085-1.543.539-2.074.5a1.83,1.83,0,0,1-1.047-.429,1.525,1.525,0,0,1-.033-.978,3.031,3.031,0,0,1,.994-1.319c.309-.171,1.061-.05,1.405-.12.416-.085,1.351-.2,1.612-.532.209-.267.078-1.015.1-1.354a12.4,12.4,0,0,1,.155-2.178,17.251,17.251,0,0,1,.908-1.492c.176-.37.356-1.181.549-1.543.156-.3.7-.757.789-1.08.066-.254.075-.871-.121-1.046a.989.989,0,0,0-.788,0c-.239.117-.447.67-.652.84s-.716.542-.994.515a1.017,1.017,0,0,1-.617-.5,3.05,3.05,0,0,1,.429-1.68,9.464,9.464,0,0,1,1.149-1.3c.36-.4,1.081-1.206,1.457-1.594.354-.366,1.093-1.067,1.457-1.423a13.161,13.161,0,0,0,1.354-1.32,4.419,4.419,0,0,0,.565-1.286,8.632,8.632,0,0,0-.1-1.629c-.051-.653-.245-1.952-.24-2.607a10.251,10.251,0,0,0,.12-1.1c-.037-.274-.142-.963-.411-1.029-.216-.052-.447.583-.669.583-.255,0-.6-.477-.771-.669-.308-.351-.583-1.421-1.028-1.56-.34-.106-1.034.321-1.32.531-.2.144-.4.644-.617.754a2.022,2.022,0,0,1-1.354.086,1.71,1.71,0,0,1-.583-.978c-.065-.461.462-1.334.479-1.8.023-.588-.459-1.727-.428-2.314.021-.424.595-1.22.479-1.628-.1-.339-.741-.768-1.046-.943a1.718,1.718,0,0,0-.892-.292,1.948,1.948,0,0,0-.96,1.012c-.138.459.368,1.407.343,1.885-.017.3-.288.867-.343,1.166a19.774,19.774,0,0,1-.188,2.606,4.405,4.405,0,0,1-1.046,1.389c-.206.165-.738.287-.961.429-.394.252-1.012.981-1.405,1.235a5.815,5.815,0,0,1-.994.445,6.608,6.608,0,0,1-1.7.377,2.8,2.8,0,0,1-1.424-.429c-.447-.442-.593-1.792-.754-2.4a13.183,13.183,0,0,1-.446-2.058,6.451,6.451,0,0,1,.206-1.628c.08-.262.482-.7.5-.978.021-.417-.51-1.152-.6-1.56-.095-.424.021-1.322-.12-1.732a2.373,2.373,0,0,0-.7-1.028c-.211-.117-.771.113-.96-.035a1.434,1.434,0,0,1-.274-.926c.018-.333.535-.9.514-1.233a2.642,2.642,0,0,0-.737-1.287,6.8,6.8,0,0,0-1.337-.583c-.052-.034-1.369-.849-1.835-1.114a13.168,13.168,0,0,1-1.389-.737,5.261,5.261,0,0,1-1.183-1.389,1.635,1.635,0,0,1-.138-.925c.1-.247.732-.409.841-.652a1.423,1.423,0,0,0-.069-.892,2.757,2.757,0,0,0-.72-.6,14.271,14.271,0,0,1-1.595-1.012,13.934,13.934,0,0,1-.926-1.628,17.541,17.541,0,0,1-1.3-1.732c-.194-.439-.106-1.479-.36-1.886a2.721,2.721,0,0,0-1.012-.754c-.221-.087-.775.064-.943-.1-.2-.194.017-.857-.119-1.1a3.079,3.079,0,0,0-.961-.72c-.335-.19-1.145-.318-1.423-.583a4.465,4.465,0,0,1-.412-.875,2.585,2.585,0,0,0-.531-.806c-.331-.2-1.173-.052-1.543-.171a3.745,3.745,0,0,1-1.183-.669c-.287-.3-.387-1.284-.755-1.474-.215-.112-.728.205-.96.137a1.837,1.837,0,0,1-.789-.686c-.141-.268-.008-.927-.137-1.2a4.191,4.191,0,0,0-.909-.943c-.369-.317-1.308-.722-1.595-1.114a7.683,7.683,0,0,1-.479-1.561,11.494,11.494,0,0,0-.635-1.612c-.269-.448-1.078-1.149-1.354-1.594-.251-.4-.494-1.35-.754-1.749a5.948,5.948,0,0,0-1.395-1.492,7.451,7.451,0,0,0-1.761-.412,13.785,13.785,0,0,1-1.395-.228c-.4-.139-1.071-.729-1.486-.823a3.121,3.121,0,0,0-1.576.091c-.333.171-.642.938-.938,1.166a2.219,2.219,0,0,1-.937.412,4.655,4.655,0,0,1-1.212-.479,4.979,4.979,0,0,0-.914-.344,3.657,3.657,0,0,0-1.829.274,2.339,2.339,0,0,0-.5.869c-.11.278-.164.888-.274,1.166a2.43,2.43,0,0,1-.526.915,1.918,1.918,0,0,1-1.165.16,4.392,4.392,0,0,1-1.326-1.051c-.283-.287-.7-.991-.983-1.281-.194-.2-.743-.458-.868-.708-.134-.267.056-.91-.047-1.189a3.564,3.564,0,0,0-.708-.915c-.317-.317-1.071-.812-1.417-1.1-.329-.271-.856-1.086-1.281-1.121-.268-.021-.655.5-.914.572s-.874-.11-1.12.023c-.159.085-.317.44-.411.594-.133.216-.24.812-.479.892-.336.111-.929-.578-1.281-.594a2.5,2.5,0,0,0-1.143.412,3.6,3.6,0,0,0-.663.845,3.848,3.848,0,0,0-.479,1.075c-.036.257.23.778.159,1.029-.1.34-.833.731-.914,1.074a3.066,3.066,0,0,0,.319,1.3c.057.141.3.375.3.526-.006.235-.353.618-.5.8s-.562.415-.663.618a7.591,7.591,0,0,0-.114,1.1,1.806,1.806,0,0,1-.343.754c-.1.076-.393.006-.48.091-.172.167-.146.7-.206.938-.071.281-.09.942-.319,1.12-.186.144-.707-.013-.937.023a11.294,11.294,0,0,1-1.577.457c-.2-.009-.571-.383-.755-.3-.426.2-.512,1.32-.595,1.783a4.191,4.191,0,0,0-.045,1.669c.131.335.761.766,1.006,1.029.353.38,1.21,1.062,1.371,1.555a4.787,4.787,0,0,1-.114,1.257c-.014.309.175.979,0,1.234-.193.284-1.046.25-1.279.5a1.561,1.561,0,0,0-.32,1.052c.095.356.922.671,1.074,1.006.128.281-.078.952.045,1.234.166.377.909.844,1.166,1.166a6.408,6.408,0,0,1,.823,1.3,2.6,2.6,0,0,1,.183,1.3c-.095.258-.663.507-.822.732-.147.206-.476.7-.39.938.111.3.835.5,1.144.594.215.065.706-.032.892.092.277.184.434.905.641,1.166.139.174.445.546.663.594a1.923,1.923,0,0,0,1.188-.365c.146-.125.171-.6.343-.686a.864.864,0,0,1,.755.16c.154.2,0,.757-.046,1.006a5.936,5.936,0,0,0-.251.846,2.743,2.743,0,0,0,.594,1.623c.221.165.859-.07,1.1.069a2.612,2.612,0,0,1,.73,1.12c.087.25-.058.835.093,1.053.122.175.612.228.776.365s.306.557.48.663c.242.146.942-.061,1.12.16.205.253.026,1-.092,1.3s-.624.709-.776.983c-.106.191-.157.656-.3.823-.1.117-.445.17-.525.3-.169.266.083.995-.092,1.257-.108.163-.611.178-.7.354a1.4,1.4,0,0,0,.206,1.051c.231.293,1.132.321,1.36.617a2.4,2.4,0,0,1,.193,1.154c-.008.346-.347,1.007-.3,1.349a3.542,3.542,0,0,0,.719,1.3,2.488,2.488,0,0,0,.721.538c.207.08.685-.023.88.08.227.12.458.622.652.789.118.1.428.208.537.32.133.136.392.473.377.663-.027.364-.628.905-.9,1.143a3.443,3.443,0,0,1-1.1.641,3.062,3.062,0,0,1-1.233-.126c-.248-.087-.629-.5-.881-.571a1.944,1.944,0,0,0-1.2.023.739.739,0,0,0-.217.537c.061.336.806.686.926,1.006.08.214-.063.689-.022.914a5.337,5.337,0,0,0,.388.949,2.87,2.87,0,0,1,.08,1.12,1.746,1.746,0,0,1-.5.548c-.227.169-.827.283-1.018.492a1.567,1.567,0,0,0-.343.926c.039.245.5.557.617.777a2.622,2.622,0,0,1,.367,1.223c-.055.269-.6.588-.7.846s.049.838-.012,1.108c-.037.169-.24.462-.285.629a11.669,11.669,0,0,0-.205,1.875,6.7,6.7,0,0,1,0,1.029c-.087.31-.669.777-.664,1.1a2.418,2.418,0,0,0,.812,1.247c.131.1.511.12.629.239.14.141.144.595.273.743a1.889,1.889,0,0,0,.813.423c.314.056.973-.281,1.269-.16.2.082.413.492.526.674.13.21.22.751.423.892.139.1.506.036.674.057.337.043,1.122-.032,1.338.229a1.211,1.211,0,0,1-.022.9c-.074.168-.464.342-.526.515-.084.232.246.781.1.983a.418.418,0,0,1-.094.091,2.062,2.062,0,0,1-1.231.228c-.383-.069-.914-.777-1.292-.868a1.034,1.034,0,0,0-.674.08,1.471,1.471,0,0,0-.31,1.074c.074.3.744.6.857.892a2.678,2.678,0,0,1-.018,1.543A2.612,2.612,0,0,1,5750,4224.9c-.339.112-1.066-.136-1.423-.12a8.816,8.816,0,0,1-1.314.257.486.486,0,0,1-.074-.017c-.426-.142-.907-1-1.235-1.3a8.091,8.091,0,0,1-.908-.754c-.176-.247-.2-.932-.429-1.132a1.967,1.967,0,0,0-1.046-.257,13.431,13.431,0,0,0-1.492.5,6.765,6.765,0,0,0-.891.068c-.164.065-.393.363-.549.446-.237.125-.79.432-1.029.308-.275-.143-.451-.876-.394-1.183.048-.258.569-.564.669-.806a2.042,2.042,0,0,0,.1-1.148,2.181,2.181,0,0,0-.927-.737c-.4-.173-1.319-.077-1.714-.257-.18-.083-.408-.466-.6-.515-.28-.071-.849.187-1.132.24a8.174,8.174,0,0,1-1.543.257c-.287-.02-.812-.363-1.1-.343a6.745,6.745,0,0,0-1.526.72,5.978,5.978,0,0,1-1.234.5c-.5.055-1.472-.34-1.972-.326a7.14,7.14,0,0,0-1.475.326,13.621,13.621,0,0,0-2.3.977c-.37.229-.906,1-1.32,1.132-.24.078-.771-.171-1.011-.085-.31.109-.63.815-.943.908a2.368,2.368,0,0,1-1.354-.257c-.412-.241-.9-1.119-1.234-1.458a14.456,14.456,0,0,0-1.114-.959c-.256-.195-.961-.417-1.063-.721-.114-.339.283-1.044.463-1.354.234-.4,1.1-.958,1.234-1.406a1.919,1.919,0,0,0-.138-1.115c-.149-.262-.92-.437-.959-.737-.055-.413.788-.97,1.011-1.321.269-.42.981-1.271.926-1.766-.048-.426-.767-1.051-1.114-1.3s-1.194-.4-1.543-.634c-.312-.206-.96-.688-1.062-1.046-.111-.38.415-1.151.359-1.543-.047-.331-.662-.832-.651-1.166a1.844,1.844,0,0,1,.565-.875c.183-.167.693-.295.875-.463.224-.207.7-.729.651-1.029-.046-.268-.765-.413-.857-.668s.23-.753.224-1.012a2.5,2.5,0,0,0-.395-1.388c-.255-.222-1-.154-1.338-.189-.236-.024-.76-.207-.948-.063-.289.219-.124,1.1-.3,1.418a10.132,10.132,0,0,1-1.783,1.76,13.483,13.483,0,0,1-2.034,1.691c-.447.229-1.5.263-1.943.5a9.829,9.829,0,0,0-1.577,1.463,21.341,21.341,0,0,1-1.943,2.172,7.38,7.38,0,0,1-1.783.708,18.01,18.01,0,0,0-2.1.3,14.759,14.759,0,0,0-1.646,1.4c-.731.524-2.3,1.417-3.087,1.852a13.26,13.26,0,0,1-2.217,1.12,6.839,6.839,0,0,1-2.584.091c-.4-.108-1.027-.738-1.417-.891-.472-.187-1.55-.643-1.988-.389-.585.338-.594,1.943-.869,2.561-.109.245-.434.685-.526.937-.175.481-.277,1.512-.388,2.011a6.159,6.159,0,0,1-2.081,4.733c-.214.3-.558.959-.777,1.257-.263.355-.912.965-1.166,1.327-.3.426-.692,1.411-1.006,1.828a4.925,4.925,0,0,1-.868.869,15.3,15.3,0,0,1-2.652,1.1c-.527.185-1.841.151-2.148.617-.2.309.284,1.109.183,1.463-.117.41-.853.961-1.074,1.326a9.634,9.634,0,0,0-.983,2.24,4.642,4.642,0,0,0,0,1.714c.146.481.652,1.488,1.121,1.669.674.262,2.139-.419,2.812-.686.366-.145.992-.669,1.371-.777a5.442,5.442,0,0,1,1.737-.069c.229.037.746.125.869.321a1.621,1.621,0,0,1-.114,1.188c-.214.376-1.187.648-1.395,1.028-.1.184.017.606-.007.882a.351.351,0,0,1-.062.193c-.243.3-1.106.342-1.486.411a29.868,29.868,0,0,1-3.36.309,18.07,18.07,0,0,1-3.052-.1c-.666-.133-1.87-.838-2.538-.96a10.366,10.366,0,0,0-1.338,0,17.553,17.553,0,0,0-2.537-.034,4.4,4.4,0,0,0-1.509.618c-.229.189-.453.772-.651.994a4.9,4.9,0,0,1-1.166.96c-.467.208-1.549.117-2.023.309a4.732,4.732,0,0,0-.823.583c-.6.481-1.733,1.531-2.3,2.058a14.807,14.807,0,0,0-1.61,1.577c-.261.37-.527,1.255-.755,1.646-.486.832-1.855,2.248-2.264,3.121-.37.793-.5,2.593-.857,3.395-.219.5-.975,1.321-1.2,1.817-.239.526-.413,1.688-.616,2.229-.182.481-.694,1.378-.893,1.852a6.957,6.957,0,0,0-.377,1.063c-.092.506.042,1.548-.034,2.057a4.968,4.968,0,0,1-.514,1.783c-.178.228-.826.35-1,.583a2.9,2.9,0,0,0-.309,1.44c.021.265.365.729.377.994a3.528,3.528,0,0,1-.377,1.337c-.111.209-.562.49-.617.72a2.439,2.439,0,0,0,.309,1.3,6.088,6.088,0,0,0,1.817,1.681,6.309,6.309,0,0,0,1.612.377,5.072,5.072,0,0,0,1.748.069,2.124,2.124,0,0,0,1.028-.892c.142-.424-.454-1.309-.376-1.749a1.992,1.992,0,0,1,.582-.926c.272-.2,1.006-.184,1.3-.343a3.636,3.636,0,0,0,1.2-1.063c.19-.368-.03-1.285.172-1.646.153-.272.823-.494,1-.755.218-.332.135-1.228.377-1.543a2.9,2.9,0,0,1,1.131-.617,4.99,4.99,0,0,1,1.715-.171,6.583,6.583,0,0,1,1.75.823,8.979,8.979,0,0,1,2.091,1.75c.393.582.513,2.063.857,2.674.173.307.747.76.926,1.063.191.323.3,1.1.515,1.406a15.456,15.456,0,0,0,1.955,1.749,4.2,4.2,0,0,1,.788.755c.238.47-.079,1.7.274,2.091.225.249,1.042.1,1.3.309.339.274.467,1.249.753,1.577a3.547,3.547,0,0,0,1.612,1.063c.437.04,1.175-.716,1.611-.686a2.261,2.261,0,0,1,1.3.789,3.256,3.256,0,0,1,.068,1.3,15.644,15.644,0,0,1-.273,2.949c-.206.727-1.055,2.009-1.338,2.709a38.425,38.425,0,0,0-1.44,4.492c-.144.642-.16,1.975-.343,2.606a14.247,14.247,0,0,1-.789,1.714c-.162.33-.362,1.127-.686,1.3-.341.186-1.156-.154-1.543-.137a3.722,3.722,0,0,0-1.715.309.606.606,0,0,0-.057.056,4.194,4.194,0,0,0-.526,1.555c-.1.455.091,1.449-.137,1.852-.212.375-1.146.652-1.406.995a3.205,3.205,0,0,0-.549,1.543,3.326,3.326,0,0,0,.549,1.131c.225.348.932.876,1.063,1.269a7.078,7.078,0,0,1-.069,1.269,9.9,9.9,0,0,0,.48,2.4,5.881,5.881,0,0,0,1.063,1.508c.438.4,1.842.645,2.057,1.2.165.427-.492,1.294-.549,1.749a4.187,4.187,0,0,0,.1,1.817,3.776,3.776,0,0,0,1.337,1.063c.469.236,1.552.321,2.023.549.288.138.731.638,1.029.754a2.948,2.948,0,0,0,1.543.172c.466-.176,1.008-1.1,1.337-1.475.262-.3.666-1.044,1.028-1.2a4.66,4.66,0,0,1,2.126.1c.555.126,1.556.7,2.093.891a19.742,19.742,0,0,1,2.4.652c.457.25,1.122,1.1,1.543,1.405.3.222.932.817,1.3.755.413-.069.793-.98,1.1-1.269.584-.556,2.008-1.382,2.537-1.989.347-.4.718-1.42,1.063-1.818.4-.46,1.583-1,1.92-1.508.162-.244.1-.924.309-1.132a2.452,2.452,0,0,1,1.475-.412c.363.035.948.568,1.3.652a14.466,14.466,0,0,0,2.605,0c.755-.008,2.264-.061,3.019-.069a6.075,6.075,0,0,1,1.611,0c.515.188,1.245,1.073,1.681,1.406a10.889,10.889,0,0,0,2.537,1.783,8.33,8.33,0,0,0,2.983-.24c.672-.154,1.9-.854,2.571-.995a6.343,6.343,0,0,1,2.606-.1,3.658,3.658,0,0,1,1.44,1.371,5.806,5.806,0,0,1,.274,2.744c-.067.335-.571.868-.651,1.2-.114.466.356,1.564.034,1.92-.214.236-.955.156-1.269.1-.3-.049-.8-.491-1.1-.48a2.211,2.211,0,0,0-1.3.687c-.219.329-.1,1.183-.138,1.577a4.536,4.536,0,0,1-.172,1.561c-.146.224-.771.313-.926.531a1.95,1.95,0,0,0-.205,1.115,6.788,6.788,0,0,0,1.371,2.075c.3.356,1.315.805,1.372,1.269.03.255-.51.607-.565.857a4.124,4.124,0,0,0,.205,1.474,6.89,6.89,0,0,0,.583,1.389c.141.224.609.542.7.789a4.045,4.045,0,0,1,0,1.406c-.036.336-.231.987-.291,1.32a7.662,7.662,0,0,0-.241,1.663c.043.358.461.985.532,1.338a12.8,12.8,0,0,0,.034,1.44,3.045,3.045,0,0,0,.823.995c.544.4,1.938.642,2.5,1.011a6.583,6.583,0,0,1,1.646,1.612,4.662,4.662,0,0,1,.445,1.852,3.6,3.6,0,0,1-.5,1.508,3.923,3.923,0,0,1-1.3.892c-.262.1-.892,0-1.115.172a1.827,1.827,0,0,0-.428.977c-.037.394.493,1.17.36,1.543s-.973.707-1.27.977a8.617,8.617,0,0,0-1.423,1.526,5.26,5.26,0,0,0-.395,1.44,10.844,10.844,0,0,0,.034,2.194,14.325,14.325,0,0,1,.411,1.474,4.506,4.506,0,0,1-.462,1.629c-.194.343-.868.817-1.08,1.148a4.263,4.263,0,0,0-.55,1.355,3.068,3.068,0,0,0,.258,1.44c.183.293.862.585,1.114.823a3.259,3.259,0,0,1,.789.943,2.123,2.123,0,0,1-.138,1.371c-.162.224-.815.251-1.012.446a5.449,5.449,0,0,0-.479,1.08,3.236,3.236,0,0,1-.6.96c-.382.26-1.373.213-1.817.343-.319.093-1.057.216-1.234.5s.1,1.015.086,1.354c-.016.381.019,1.214-.224,1.509-.2.243-.922.253-1.183.429-.377.254-.811,1.151-1.218,1.355-.342.171-1.155.038-1.525.137a3.243,3.243,0,0,0-1.3.6c-.287.339-.283,1.308-.463,1.714a2.607,2.607,0,0,1-.532.823c-.265.194-1.014.136-1.269.343a2.608,2.608,0,0,0-.669,1.32,3.067,3.067,0,0,0,.377,1.32,10.327,10.327,0,0,0,1.749,1.817,19.26,19.26,0,0,0,2.041,1.492c.453.272,1.45.651,1.9.926.282.171.968.471,1.063.788a2.067,2.067,0,0,1-.48,1.3c-.226.28-1.123.424-1.217.771-.07.26.485.69.5.96s-.413.764-.429,1.045a5.142,5.142,0,0,0,.36,1.235c.1.331.146,1.081.395,1.319.159.154.669.106.857.224a1.674,1.674,0,0,1,.634.737c.063.319-.278.937-.411,1.234a9.726,9.726,0,0,1-.893,1.475c-.051,0-.137.754-.222.994-.1.288-.544.764-.6,1.063a3.105,3.105,0,0,0,.205,1.406c.167.348.964.755,1.046,1.131a2.58,2.58,0,0,1-.376,1.166,3.578,3.578,0,0,1-.635.96c-.329.269-1.226.4-1.578.634a3.111,3.111,0,0,0-.977,1.029c-.1.283.132.9.086,1.2a6.4,6.4,0,0,1-.755,1.869,8.151,8.151,0,0,1-1.525,1.543,8.817,8.817,0,0,1-1.835.926c-.43.14-1.409.037-1.783.292a2.776,2.776,0,0,0-.618,1.028c-.129.331-.088,1.1-.291,1.389s-.947.579-1.252.789a22.717,22.717,0,0,0-1.92,1.44,9.03,9.03,0,0,0-1.405,1.595c-.168.3-.247,1.009-.395,1.32a13.044,13.044,0,0,1-.909,1.337c-.215.308-.681.9-.874,1.218a10.818,10.818,0,0,1-.892,1.783c-.281.274-1.163.374-1.424.668a2.864,2.864,0,0,0-.411,1.269,3.429,3.429,0,0,0,.224,1.354,3.967,3.967,0,0,0,1.166,1.2,3.52,3.52,0,0,0,.891.24c.615.111,1.889.057,2.486.24.43.132,1.153.713,1.578.857.46.157,1.475.114,1.92.308a10.739,10.739,0,0,1,1.783,1.407,11.055,11.055,0,0,0,1.681,1.509c.479.216,1.67-.076,2.091.24.336.251.357,1.246.652,1.542a2.78,2.78,0,0,0,1.749.755c.678-.136,1.374-1.565,1.92-1.989.343-.266,1.171-.585,1.509-.858s.87-1.032,1.2-1.337,1.155-.795,1.475-1.132a7.776,7.776,0,0,0,.755-1.1c.157-.272.293-.948.548-1.132.218-.157.822-.02,1.063-.137a7.586,7.586,0,0,0,1.371-1.338c.28-.285.732-1,1.1-1.166s1.3.192,1.646-.034c.309-.2.34-1.095.617-1.337a3.44,3.44,0,0,1,1.235-.377c.338-.068,1.114.093,1.371-.137.184-.164.142-.724.206-.96a4.764,4.764,0,0,1,.48-1.439,3.053,3.053,0,0,1,1.474-.789c.318-.035.915.351,1.235.343a8.871,8.871,0,0,0,1.543-.514,5.018,5.018,0,0,1,.892-.206c.208-.006.623.2.822.137.365-.114.765-.875,1.1-1.063a5.517,5.517,0,0,1,1.165-.309c.374-.084,1.229-.013,1.509-.274.181-.17.2-.717.24-.96a1.386,1.386,0,0,0,.017-.148,3.648,3.648,0,0,1,.087-.812,2.711,2.711,0,0,1,.617-.822,5.746,5.746,0,0,1,1.474-.652c.1,0,1.076-.775,1.475-.96a7.66,7.66,0,0,1,1.681-.445c.654-.085,1.98.01,2.641,0a7.438,7.438,0,0,0,2.263-.069,3.206,3.206,0,0,0,.994-1.1c.323-.584.428-1.971.721-2.571.234-.479,1.04-1.233,1.269-1.715.254-.535.364-1.747.583-2.3.131-.329.379-1.06.686-1.235a3.884,3.884,0,0,1,2.058.068,14.275,14.275,0,0,1,1.681.79,10.084,10.084,0,0,0,1.715.686,4.686,4.686,0,0,0,2.023-.1c.54-.247,1.138-1.4,1.646-1.714.58-.355,2.049-.4,2.606-.789a11.69,11.69,0,0,0,1.3-1.749c.561-.663,1.854-1.83,2.4-2.5a10.178,10.178,0,0,0,.665-1.052,4.969,4.969,0,0,1,.878-1.211,4.186,4.186,0,0,1,1.234-.515,7.432,7.432,0,0,1,1.955-.206,6.952,6.952,0,0,1,1.988.651,8.068,8.068,0,0,1,1.44,1.235c.448.49,1.057,1.709,1.544,2.161.389.36,1.422.743,1.817,1.1s.935,1.321,1.3,1.713a14.4,14.4,0,0,0,2.058,1.784,8.848,8.848,0,0,0,1.714.754c.45.129,1.417.1,1.853.274a8.089,8.089,0,0,1,1.131.789c.472.326,1.437.949,1.887,1.3.324.255.886.875,1.234,1.1a10.517,10.517,0,0,0,1.68.72,15.235,15.235,0,0,0,2.47.652,5.191,5.191,0,0,0,2.3-.1c.4-.223.639-1.271,1.029-1.509a4.391,4.391,0,0,1,2.846-.343,2.224,2.224,0,0,1,.926,1.132,7.045,7.045,0,0,1-.445,2.366,5.881,5.881,0,0,0-.446,2.092,4.827,4.827,0,0,0,1.681,1.852c.6.393,2.075.594,2.709.926.32.167.81.8,1.166.856a1.676,1.676,0,0,0,1.2-.376c.313-.419-.006-1.571.034-2.092.043-.561-.079-1.821.309-2.229a3.019,3.019,0,0,1,1.817-.343c.687.05,1.938,1.059,2.606.892.5-.125,1.062-1.125,1.406-1.508a15.088,15.088,0,0,1,1.749-2.023c.4-.273,1.395-.418,1.817-.651.314-.175.806-.737,1.131-.892.247-.117.837-.089,1.063-.24.281-.187.485-.95.789-1.1a3.549,3.549,0,0,1,1.816.068,5.584,5.584,0,0,1,1.372.72c.264.194.626.8.926.926a4.347,4.347,0,0,0,1.955.069,4.71,4.71,0,0,0,1.577-.771c.249-.218.478-.893.737-1.1.2-.162.775-.2.978-.36a2.7,2.7,0,0,0,.634-1.012,4.738,4.738,0,0,0,.018-2.3c-.094-.233-.569-.507-.7-.72a3.408,3.408,0,0,1-.617-1.7,2.469,2.469,0,0,1,.835-1c.045-.037.088-.069.126-.1.3-.225,1.05-.417,1.354-.635.262-.187.621-.754.892-.926.2-.122.677-.173.874-.291a2.887,2.887,0,0,0,1.063-.994,3.253,3.253,0,0,0-.206-1.338c-.087-.348-.546-1-.479-1.354.079-.418.847-.956,1.114-1.286a6.13,6.13,0,0,1,.755-1,5.731,5.731,0,0,1,2.092-.651c.322-.03.962.167,1.285.154a8.1,8.1,0,0,0,2.2-.445c.335-.147,1.063-.513,1.183-.858a2.12,2.12,0,0,0-.411-1.474c-.2-.236-.858-.366-1.132-.515a5.574,5.574,0,0,1-1.595-1.028,1.9,1.9,0,0,1-.24-1.132c.108-.4.809-.954,1.115-1.235a8.534,8.534,0,0,1,1.715-1.285c.443-.189,1.447-.151,1.9-.309.334-.116.9-.575,1.235-.686a6.614,6.614,0,0,1,1.389-.188c.4-.014,1.2.125,1.595.1a7.822,7.822,0,0,1,1.233-.223c.476.08,1.211.84,1.681.943a12.417,12.417,0,0,0,1.731-.137,13.786,13.786,0,0,1,1.561.206,5.974,5.974,0,0,1,1.63.377c.139.088.264.441.41.515.315.157,1.057-.005,1.406.034a7.685,7.685,0,0,1,2.247.463,7.4,7.4,0,0,1,1.131,1.251c.312.34.927,1.027,1.252,1.355a4.454,4.454,0,0,0,.943.891,5.172,5.172,0,0,0,1.766.051c.429-.03,1.267-.282,1.7-.292a10.547,10.547,0,0,1,1.972.257,6.642,6.642,0,0,1,1.423.5,4.758,4.758,0,0,1,1.252,1.149c.182.3.188,1.049.36,1.354a5.584,5.584,0,0,0,.892.909,2.809,2.809,0,0,0,1.218.051c.479-.228.989-1.248,1.313-1.668a15.218,15.218,0,0,1,.937-1.246,3.174,3.174,0,0,1,.71-.515,2.908,2.908,0,0,1,1.313-.24,3.982,3.982,0,0,1,1.681,1.246,10.6,10.6,0,0,1,.435,1.417c.144.318.549.892.731,1.189.12.194.354.586.48.778.219.332.658,1,.915,1.3.14.167.53.417.617.617.078.184-.028.606.022.8a8.742,8.742,0,0,0,1.006,1.921,12.7,12.7,0,0,1,.96,1.142c.206.448.085,1.511.32,1.944.2.373.984.818,1.257,1.142.3.358.736,1.2,1.006,1.577a14.218,14.218,0,0,0,1.234,1.578c.482.463,1.7,1.086,2.173,1.555a6.546,6.546,0,0,1,1.212,1.646c.129.338.035,1.093.137,1.44.158.547.829,1.5,1.029,2.035a12.937,12.937,0,0,1,.293,1.3h0a3.106,3.106,0,0,0,.187.616,8,8,0,0,0,1.143,1.509,8.256,8.256,0,0,0,1.738,1.417c.517.242,1.727.184,2.239.435a4.22,4.22,0,0,1,1.1.96,9.536,9.536,0,0,1,.848,1.737c.138.346.283,1.088.456,1.417a27.5,27.5,0,0,0,2.31,3.018c.492.625,1.45,1.9,2.012,2.469a15.964,15.964,0,0,0,2.72,2.24c.385.205,1.313.252,1.669.5.308.217.61.962.892,1.211a14.98,14.98,0,0,0,3.064,1.714c.435.189,1.369.389,1.806.572a9.624,9.624,0,0,1,2.24,1.188,11.726,11.726,0,0,1,.96,1.555c.266.38.892,1.072,1.144,1.462a24.159,24.159,0,0,0,1.165,2.24c.393.452,1.571.927,1.943,1.4a6.042,6.042,0,0,1,.721,1.714,20.2,20.2,0,0,1,.343,2.915c.062.967.023,2.906.034,3.875.008.729.091,2.189.034,2.915a16.06,16.06,0,0,1-.377,2.229c-.229.841-.93,2.443-1.234,3.258-.233.625-.662,1.89-.926,2.5a27.541,27.541,0,0,0-1.338,2.709,9.155,9.155,0,0,0-.1,1.749c0,.438.112,1.312.1,1.749,0,.25-.1.744-.1.995-.011.532.085,1.6.137,2.126.022.225.045.539.075.873a7.465,7.465,0,0,0,.233,1.458c.1.291.571.759.617,1.063a3.687,3.687,0,0,1-.309,1.372c-.182.469-.946,1.248-.994,1.748-.064.686.748,1.933.892,2.607a19.113,19.113,0,0,1,.309,3.4,50.049,50.049,0,0,1-.754,5.075c-.139.834-.872,2.52-.617,3.326.231.735,1.674,1.594,2.194,2.16.264.288.709.936.994,1.2.68.632,2.277,1.6,3.018,2.161a8.722,8.722,0,0,1,1.543,1.234c.476.667.723,2.358,1.1,3.086a14.485,14.485,0,0,0,1.749,2.5c.419.444,1.45,1.119,1.921,1.509.569.474,1.715,1.42,2.229,1.955a11.2,11.2,0,0,1,2.16,2.675,18.558,18.558,0,0,1,.034,2.5,23.064,23.064,0,0,0,.926,2.88,6.466,6.466,0,0,0,.549,1.44,7.784,7.784,0,0,0,1.269.892,8.391,8.391,0,0,0,1.338,1.063,16,16,0,0,0,1.783.1,15.744,15.744,0,0,1,1.988.755c.529.217,1.553.734,2.092.926a16.671,16.671,0,0,0,1.887.514c.813.152,2.471.238,3.292.343.9.116,2.717.327,3.6.549.4.1,1.323.2,1.543.548.18.284-.017,1.024-.138,1.337-.156.407-.823,1.022-1.028,1.406a4.546,4.546,0,0,0-.651,1.783c.049.563.882,1.449,1.131,1.955.259.524.614,1.646.893,2.161a11.985,11.985,0,0,1,1.063,1.543c.14.478-.336,1.569-.068,1.989.2.314,1.1.329,1.372.583.316.3.489,1.23.788,1.543a3.944,3.944,0,0,0,1.2.686,5.544,5.544,0,0,0,2.023.309c.288-.049.741-.5,1.028-.549a5.3,5.3,0,0,1,1.646.309,11.813,11.813,0,0,1,1.92.754,7.825,7.825,0,0,1,1.612,1.235,12.313,12.313,0,0,1,.857,1.577,11.739,11.739,0,0,1,1.1,1.92,9.634,9.634,0,0,1-.034,2.606,7.5,7.5,0,0,1-.446,2.057c-.168.316-.8.726-.994,1.029a3.98,3.98,0,0,0-.617,1.714c.023.3.485.776.583,1.063a5.215,5.215,0,0,1,.309,1.955,6.225,6.225,0,0,1-1.3,2.227l-.035.037a6.994,6.994,0,0,1-1.714,1.1c-.567.248-1.823.393-2.4.617-.562.218-1.827.609-2.126,1.132a2.422,2.422,0,0,0,.068,1.509,4.24,4.24,0,0,0,1.475,1.783,6.707,6.707,0,0,0,2.023,0c.618.013,1.942-.22,2.469.1a2.957,2.957,0,0,1,.789,1.406,3.37,3.37,0,0,1,0,2.023c-.261.377-1.347.378-1.715.652-.417.31-.884,1.3-1.269,1.646-.314.284-1.118.618-1.44.892a5.61,5.61,0,0,0-1.337,1.542c-.136.352.047,1.141-.035,1.51-.115.521-.824,1.421-.857,1.954a2.391,2.391,0,0,0,.378,1.269c.265.311,1.158.444,1.474.7a4,4,0,0,1,.5.669,5.11,5.11,0,0,0,.479.686c.052,0,.425-.364.6-.412a1.625,1.625,0,0,1,.994.12,1.274,1.274,0,0,1,.326.634,7.86,7.86,0,0,1-.12,1.2c.017.052.45.335.565.48.247.311.439,1.116.669,1.44a2.415,2.415,0,0,0,.7.686c.25.1.818-.049,1.08.017.164.042.523.159.6.309a1.4,1.4,0,0,1-.155,1.012,2.788,2.788,0,0,1-1.2.7c-.383.113-1.221-.07-1.595.069-.246.091-.754.4-.822.651-.088.319.279.971.479,1.234a6.54,6.54,0,0,0,1.081.806c.223.167.839.395.892.668.034.178-.246.493-.378.617a6.328,6.328,0,0,1-.994.532c-.317.18-1.179.4-1.252.754-.034.166.325.4.395.549a2.23,2.23,0,0,1,.257,1.08.97.97,0,0,1-.429.445c-.247.108-.844-.114-1.08.018a2.36,2.36,0,0,0-.856,1.337c-.032.311.424.855.445,1.166.015.21-.227.615-.188.823a2.9,2.9,0,0,0,.789,1.183c.157.138.652.177.754.361a.912.912,0,0,1-.086.753c-.162.179-.783.026-.942.207-.183.207-.113.822-.1,1.1.016.439.389,1.3.291,1.732-.057.245-.575.571-.583.823s.4.641.531.857a7.375,7.375,0,0,1,.926,1.595,1.951,1.951,0,0,1-.137,1.131c-.122.169-.671.169-.755.36-.1.235.285.722.309.977a3.41,3.41,0,0,1-.138,1.149,8.7,8.7,0,0,1-.994,1.44c-.215.293-.652.875-.891,1.149-.275.315-.912.869-1.166,1.2-.234.305-.593.99-.789,1.32-.16.27-.507.794-.635,1.08-.16.362-.182,1.25-.48,1.509a1.6,1.6,0,0,1-.993.171c-.238-.041-.605-.536-.841-.48-.355.085-.544.963-.806,1.218a4.681,4.681,0,0,1-1.731,1.081,4.117,4.117,0,0,1-1.029-.224,3.3,3.3,0,0,0-1.046-.154,1.782,1.782,0,0,0-.651.514c-.235.3-.313,1.182-.635,1.389-.184.118-.664-.059-.874,0s-.513.4-.72.429c-.246.034-.718-.311-.961-.257a1.241,1.241,0,0,0-.514.429c-.172.25-.13,1-.395,1.148-.223.124-.74-.206-1-.223s-.861-.111-1.028.086c-.23.273.032,1.078.12,1.423.073.286.419.791.479,1.08.052.244-.119.777,0,1,.088.16.486.266.618.394.165.163.342.617.515.771.153.138.6.22.737.377.206.244.26.927.395,1.218s.533.824.686,1.114c.178.341.405,1.086.616,1.406a12.282,12.282,0,0,0,1.149,1.217,12.962,12.962,0,0,1,1.114,1.132c.171.248.287.881.5,1.1.3.308,1.184.521,1.543.754.338.218.858.89,1.234,1.029a5.071,5.071,0,0,0,1.3.017c.086,0,.892-.8,1.269-.823.331-.02,1.132.6,1.184.6a7.649,7.649,0,0,0,1.371-.325c.193-.092.481-.451.687-.515a4.18,4.18,0,0,1,.977.034c.138,0,.534-.546.755-.668.316-.177,1.122-.074,1.423-.274s.454-1.02.771-1.166a2.26,2.26,0,0,1,1.269.155c.414.157,1.059.816,1.458,1.011a12.856,12.856,0,0,1,1.526.48c.268.194.488.906.771,1.08a8.457,8.457,0,0,0,2.092.326c.548.116,1.608.674,2.16.583.274-.045.652-.568.926-.618a3.248,3.248,0,0,1,1.458.343,2.635,2.635,0,0,1,.857.7,3.852,3.852,0,0,1,.239,1.3,6.384,6.384,0,0,0-.068,1.166,1.674,1.674,0,0,0,.5.6c.283.2,1.049.228,1.3.462.238.221.32.938.531,1.184a10.076,10.076,0,0,0,2.3,1.492c.453.244,1.435.575,1.886.823a17.069,17.069,0,0,0,1.681,1.132,9.65,9.65,0,0,0,2.126.188c.895.038,2.688-.042,3.583-.017a7.52,7.52,0,0,1,1.44.085,13.124,13.124,0,0,1,1.166.617c.052,0,.876.046,1.167.018a1.411,1.411,0,0,0,1.646-1.7c0-.457-.567-1.263-.635-1.715a2.745,2.745,0,0,1,.085-1.439c.324-.48,1.567-.75,2.093-.995.448-.209,1.486-.441,1.8-.823a2.519,2.519,0,0,0,.343-1.458,2.6,2.6,0,0,0-.582-.995c-.315-.333-1.194-.7-1.526-1.012a6.168,6.168,0,0,1-1.234-1.663,7.408,7.408,0,0,1-.1-1.354,7.069,7.069,0,0,0-.274-1.955,2.5,2.5,0,0,0-.788-.72c-.374-.206-1.271-.245-1.646-.446a5.579,5.579,0,0,1-1.149-1.012,6.8,6.8,0,0,1-.823-1.285,8.709,8.709,0,0,1-.36-1.458c-.075-.442-.171-1.732-.171-1.783s-.823-.84-.875-.909a5.288,5.288,0,0,1-.806-.738,2.329,2.329,0,0,1-.12-.857c.007-.361-.033-1.208.258-1.423.173-.129.656.021.857.1.249.1.6.565.856.651a6,6,0,0,1,2.023.188,1.683,1.683,0,0,0,.755-.5c.122-.173.094-.643.206-.823a1.054,1.054,0,0,1,.479-.412c.163-.028.472.163.617.24.125.067.323.305.463.326.263.04.754-.262,1.012-.326a1.984,1.984,0,0,1,.771-.137c.162.051.362.358.48.48s.271.386.411.446a1.866,1.866,0,0,0,.926-.018c.168-.047.435-.3.6-.36s.514,0,.668-.068a2.9,2.9,0,0,0,.55-.463c.2-.186.677-.519.788-.772s-.074-.857.034-1.114c.079-.187.466-.406.565-.583a3.028,3.028,0,0,0,.241-.943c.016-.236-.121-.707-.1-.943a6.445,6.445,0,0,1,.377-1.475c.088-.211.251-.7.463-.788.188-.075.6.141.771.239.3.166.738.715,1.028.892a6.613,6.613,0,0,1,.652.258,1.39,1.39,0,0,1,.243.376,1.3,1.3,0,0,0,.15.241c.162.175.517.571.755.583s.564-.435.789-.5c.141-.038.442.057.583.018.218-.062.53-.473.755-.5.168-.018.466.218.634.24a11.5,11.5,0,0,0,1.406-.137c.265-.009.841.18,1.063.034.243-.16.229-.87.43-1.08.148-.158.667-.181.788-.36a1.431,1.431,0,0,0,.034-.823c-.039-.17-.3-.444-.326-.617a1.292,1.292,0,0,1,.172-.772,1.374,1.374,0,0,1,.771-.257c.189,0,.531.25.721.24a1.068,1.068,0,0,0,.634-.291,1.444,1.444,0,0,0,.017-.806c-.043-.209-.4-.562-.359-.772s.45-.517.634-.651c.286-.21,1.021-.381,1.27-.635.2-.2.247-.857.479-1.011a1.859,1.859,0,0,1,1.2-.051c.161.056.368.358.515.445.192.116.678.17.84.326a2.71,2.71,0,0,1,.446,1.012c.038.15.007.469.051.617.065.215.385.568.43.79.068.342-.354,1.115-.138,1.389.139.176.681.04.892.12.23.086.59.466.822.548.184.064.607-.031.772.069a1.571,1.571,0,0,1,.411.651c.127.354-.062,1.211.188,1.492.129.146.575.112.755.188.251.108.664.5.926.583.2.063.646-.048.841.034.288.121.6.8.908.857.227.043.626-.338.856-.343a4.929,4.929,0,0,0,2.367.532,2.042,2.042,0,0,1,.788.737c.094.211-.075.712.018.925s.522.407.617.6-.025.636.086.806c.184.281.949.411,1.166.668s.226.979.445,1.217c.153.166.637.248.823.377.2.142.493.569.7.7.128.08.444.118.566.206.224.16.418.8.686.857.172.039.509-.185.635-.309.142-.138.188-.6.36-.7s.623.089.823.035c.222-.061.552-.428.771-.5.1-.032.328.022.428-.017a7.82,7.82,0,0,0,.755-.6,2.313,2.313,0,0,1,.617.069c.191.09.442.462.617.583a2.673,2.673,0,0,0,1.132.549,1.9,1.9,0,0,0,.978-.618c.177-.232.194-.864.343-1.114a4.6,4.6,0,0,1,.479-.5c.12-.133.3-.476.463-.548.122-.055.44.114.532.017.175-.184-.221-.8-.086-1.012.075-.121.415-.122.531-.206.228-.162.514-.668.72-.857.229-.208.845-.444,1.012-.7a3.247,3.247,0,0,0,.24-1.269c.008-.242-.289-.788-.12-.96.143-.145.64-.03.807.086.223.156.277.8.479.977.149.135.632.115.755.274.173.225-.057.9.1,1.132.1.147.471.256.635.325.258.109.793.438,1.063.36.2-.059.343-.559.531-.651.112-.056.387.041.5-.018.216-.111.359-.679.584-.771.164-.067.526.128.7.1.247-.035.661-.384.909-.412.083-.009.247.1.326.069a1.2,1.2,0,0,0,.428-.566c.092-.237-.08-.82.086-1.012.112-.13.556-.026.669-.154.233-.266-.06-1.113.137-1.406a1.681,1.681,0,0,1,.875-.463,5.947,5.947,0,0,1,.874.154,2.515,2.515,0,0,0,.892-.069,1.856,1.856,0,0,0,.789-.806c.082-.292-.285-.88-.274-1.183a2.614,2.614,0,0,1,.395-1.286c.178-.191.81-.176.977-.377s.111-.767.189-1.011a3.413,3.413,0,0,1,.514-1.114,2.966,2.966,0,0,1,1.44-.617,3.234,3.234,0,0,1,1.166.394,4.692,4.692,0,0,1,.892.651c.245.25.52.946.807,1.149a4.649,4.649,0,0,0,.925.257c.4.138,1.17.526,1.577.651a3.931,3.931,0,0,0,.927.188c.237-.007.84-.223.926-.223s-.278-1.1-.189-1.458c.063-.251.544-.571.652-.806a5.785,5.785,0,0,0,.188-.994c.072-.348.079-1.117.309-1.389.191-.227.844-.293,1.1-.446.295-.178.776-.682,1.052-.886a7.736,7.736,0,0,0,1.121-.731,3.077,3.077,0,0,0,.434-1.029c.039-.191-.082-.6,0-.778s.532-.349.641-.525a1.7,1.7,0,0,0,.205-.915,1.652,1.652,0,0,0-.571-.731c-.147-.1-.579-.021-.686-.161a.813.813,0,0,1,.022-.617c.076-.148.447-.265.526-.411a1.838,1.838,0,0,0,.091-1.075c-.1-.3-.694-.66-.845-.937a2.309,2.309,0,0,1-.32-1.167c.059-.252.5-.6.686-.776a14,14,0,0,0,1.166-.984c.225-.295.308-1.144.616-1.348.178-.117.661.078.847-.023a2.2,2.2,0,0,0,.709-1.029c.108-.379.209-1.3-.068-1.577-.3-.3-1.307.084-1.692-.092-.456-.208-.972-1.169-1.395-1.439-.291-.186-1.021-.256-1.3-.458a11.212,11.212,0,0,1-1.029-1.3c-.131-.142-.476-.356-.57-.525-.182-.32-.162-1.1-.3-1.44-.1-.244-.574-.632-.548-.892.034-.334.627-.809.914-.983.314-.19,1.11-.187,1.417-.389.176-.115.343-.494.52-.7a.51.51,0,0,1,.121-.1,3.521,3.521,0,0,1,.777-.091c.181-.037.528-.249.709-.206.271.063.563.653.822.754a2.344,2.344,0,0,0,1.35,0c.2-.095.366-.6.571-.686.189-.083.647.154.822.044a1.576,1.576,0,0,0,.526-1.234c-.088-.335-.969-.524-1.1-.846a1.521,1.521,0,0,1,.16-1.051c.173-.238.814-.352,1.053-.526.186-.136.471-.505.64-.663a3.055,3.055,0,0,0,.457-.388,3.334,3.334,0,0,0,.32-1.28c0-.316-.284-.918-.275-1.234.01-.268.26-.765.3-1.029.029-.2-.159-.69.006-.806s.557.185.737.257c.161.065.463.324.634.292a.939.939,0,0,0,.566-.583c.017-.2-.387-.48-.463-.669A1.552,1.552,0,0,1,6080.484,4565.669Z" transform="translate(0)" fill="#eb058c"/>
  </g>
</svg>
