<svg xmlns="http://www.w3.org/2000/svg" width="35" height="35" viewBox="0 0 35 35">
  <g id="message_icon" data-name="message icon" transform="translate(0.267 -0.093)">
    <rect id="Rectangle_11" data-name="Rectangle 11" width="35" height="35" rx="17.5" transform="translate(-0.267 0.093)" fill="#fff"/>
    <path id="Path_2108" data-name="Path 2108" d="M395.139,178.615l-7.894-4.919a2.237,2.237,0,0,0-2.367,0l-7.894,4.919a2.027,2.027,0,0,0-.965,1.717v9.619a2.066,2.066,0,0,0,2.092,2.038h15.9a2.066,2.066,0,0,0,2.092-2.038v-9.619A2.027,2.027,0,0,0,395.139,178.615ZM383.49,186.74l-4.89,3.8a.679.679,0,0,1-.835-1.072l4.89-3.8a.679.679,0,1,1,.835,1.072Zm1.925-1.6-6.194-4.386a.849.849,0,0,1,.515-1.542h12.653a.849.849,0,0,1,.515,1.542l-6.195,4.386A1.119,1.119,0,0,1,385.415,185.144Zm9.061,5.281a.679.679,0,0,1-.953.118l-4.89-3.8a.679.679,0,1,1,.835-1.072l4.89,3.8A.679.679,0,0,1,394.477,190.425Zm-5.97-9.927H384.16a.815.815,0,0,0,0,1.63h4.347a.815.815,0,1,0,0-1.63Z" transform="translate(-368.469 -166.079)" fill="#0f4e80"/>
  </g>
</svg>
