<svg xmlns="http://www.w3.org/2000/svg" xmlns:xlink="http://www.w3.org/1999/xlink" width="35" height="35" viewBox="0 0 35 35">
  <defs>
    <clipPath id="clip-path">
      <rect id="Rectangle_2" data-name="Rectangle 2" width="35" height="35" rx="17.5" transform="translate(0.435)" fill="#d13c9b"/>
    </clipPath>
    <linearGradient id="linear-gradient" x1="0.032" y1="0.956" x2="0.94" y2="0.042" gradientUnits="objectBoundingBox">
      <stop offset="0" stop-color="#fd5"/>
      <stop offset="0.5" stop-color="#ff543e"/>
      <stop offset="1" stop-color="#c837ab"/>
    </linearGradient>
  </defs>
  <g id="social-instagram" transform="translate(-1019 -2090)">
    <g id="Group_1" data-name="Group 1" transform="translate(1018.565 2090)" clip-path="url(#clip-path)">
      <g id="instagram" transform="translate(0.004 0)">
        <path id="Path_188" data-name="Path 188" d="M2.144,2.357C-.606,5.213-.043,8.248-.043,17.465c0,7.655-1.336,15.328,5.654,17.135,2.183.561,21.522.561,23.7,0,2.91-.751,5.278-3.111,5.6-7.227.045-.574.045-19.224,0-19.81C34.569,3.175,31.87.648,28.314.137a31.48,31.48,0,0,0-5.16-.16C8.321-.016,5.07-.677,2.144,2.357Z" transform="translate(0.145 0.08)" fill="url(#linear-gradient)"/>
        <path id="Path_189" data-name="Path 189" d="M16.387,6.511c-4.047,0-7.889-.36-9.357,3.407-.606,1.556-.518,3.576-.518,6.47,0,2.539-.081,4.925.518,6.468,1.464,3.769,5.338,3.408,9.355,3.408,3.875,0,7.87.4,9.356-3.408.607-1.571.518-3.562.518-6.468,0-3.858.213-6.349-1.658-8.219-1.895-1.895-4.457-1.657-8.218-1.657ZM15.5,8.291c8.441-.013,9.515-.952,8.923,12.084-.211,4.611-3.721,4.1-8.037,4.1-7.868,0-8.094-.225-8.094-8.1,0-7.963.624-8.088,7.208-8.094Zm6.156,1.639a1.185,1.185,0,1,0,1.185,1.185A1.185,1.185,0,0,0,21.658,9.931Zm-5.272,1.385a5.071,5.071,0,1,0,5.07,5.072,5.072,5.072,0,0,0-5.07-5.072Zm0,1.78c4.352,0,4.358,6.584,0,6.584S12.029,13.1,16.387,13.1Z" transform="translate(1.202 1.166)" fill="#fff"/>
      </g>
    </g>
  </g>
</svg>
