<svg xmlns="http://www.w3.org/2000/svg" width="35" height="35" viewBox="0 0 35 35">
  <g id="social-tiktok" transform="translate(-0.168)">
    <circle id="Ellipse_301" data-name="Ellipse 301" cx="17.5" cy="17.5" r="17.5" transform="translate(0.168)"/>
    <path id="Path_449" data-name="Path 449" d="M11.725,17.1v-.762A5.921,5.921,0,0,0,7.53,27.057,5.921,5.921,0,0,1,11.725,17.1" transform="translate(3.915 -1.625)" fill="#00f2ea" fill-rule="evenodd"/>
    <path id="Path_450" data-name="Path 450" d="M17.628,17.244a2.708,2.708,0,0,0,2.7-2.605l0-12.9h2.357a4.476,4.476,0,0,1-.076-.817H19.4l-.005,12.9a2.7,2.7,0,0,1-3.957,2.294,2.7,2.7,0,0,0,2.194,1.128M27.095,6.116V5.4a4.451,4.451,0,0,1-2.439-.725A4.481,4.481,0,0,0,27.1,6.116" transform="translate(-1.848 6.859)" fill="#00f2ea" fill-rule="evenodd"/>
    <path id="Path_451" data-name="Path 451" d="M22.866,5.681a4.459,4.459,0,0,1-1.1-2.936H20.9a4.488,4.488,0,0,0,1.964,2.936M14.9,12.023a2.705,2.705,0,0,0-1.256,5.1,2.7,2.7,0,0,1,2.194-4.285,2.659,2.659,0,0,1,.8.125V9.678a5.9,5.9,0,0,0-.8-.058c-.047,0-.093,0-.14,0v2.525a2.661,2.661,0,0,0-.8-.125" transform="translate(-0.058 5.85)" fill="#ff004f" fill-rule="evenodd"/>
    <path id="Path_452" data-name="Path 452" d="M24.453,12.527v2.5a7.658,7.658,0,0,1-4.479-1.44v6.543a5.921,5.921,0,0,1-9.322,4.852A5.922,5.922,0,0,0,20.913,20.95V14.407a7.658,7.658,0,0,0,4.479,1.44v-3.22a4.474,4.474,0,0,1-.939-.1" transform="translate(0.793 0.447)" fill="#ff004f" fill-rule="evenodd"/>
    <path id="Path_453" data-name="Path 453" d="M18.01,14.729V8.186a7.656,7.656,0,0,0,4.479,1.44v-2.5a4.481,4.481,0,0,1-2.439-1.443,4.488,4.488,0,0,1-1.964-2.936H15.729l0,12.9a2.7,2.7,0,0,1-4.9,1.477,2.705,2.705,0,0,1,1.256-5.1,2.65,2.65,0,0,1,.8.125V9.623a5.921,5.921,0,0,0-4.195,9.958,5.921,5.921,0,0,0,9.322-4.852" transform="translate(2.757 5.85)" fill="#fff" fill-rule="evenodd"/>
  </g>
</svg>
