<svg xmlns="http://www.w3.org/2000/svg" width="35" height="35" viewBox="0 0 35 35">
  <g id="social-whatsapp" transform="translate(-0.038)">
    <circle id="Ellipse_302" data-name="Ellipse 302" cx="17.5" cy="17.5" r="17.5" transform="translate(0.038)" fill="#35a81a"/>
    <path id="whatsapp-line-1" d="M90.615,101.919l.728.425a8.042,8.042,0,1,0-2.909-2.909l.424.728-.657,2.414,2.413-.659Zm-5.278,3.526,1.36-5a10.051,10.051,0,1,1,3.634,3.633Zm6.423-14.774a3.407,3.407,0,0,1,.405,0c.054,0,.109.01.163.016a.507.507,0,0,1,.4.25q.45,1.02.873,2.051a.61.61,0,0,1-.094.54,4.4,4.4,0,0,1-.264.374c-.114.146-.358.413-.358.413a.322.322,0,0,0-.061.266.889.889,0,0,0,.1.206l.059.1a6.37,6.37,0,0,0,1.026,1.275c.121.117.238.236.365.348a6.043,6.043,0,0,0,1.579,1.006l.005,0c.085.037.129.057.253.111a1.445,1.445,0,0,0,.192.066.352.352,0,0,0,.369-.131,11.744,11.744,0,0,1,.8-.939v0a.485.485,0,0,1,.38-.128.521.521,0,0,1,.178.04c.534.244,1.408.625,1.408.625l.585.262a.339.339,0,0,1,.191.266,1.941,1.941,0,0,1-.013.375,2.8,2.8,0,0,1-.189.737,1.161,1.161,0,0,1-.211.3,2.392,2.392,0,0,1-.332.29q-.062.047-.126.09-.188.119-.385.221a2,2,0,0,1-.838.231,5.18,5.18,0,0,1-.559.014c-.008,0-.571-.087-.571-.087A9.5,9.5,0,0,1,93.226,97.8c-.227-.2-.437-.415-.653-.629a9.563,9.563,0,0,1-1.981-2.757A3.49,3.49,0,0,1,90.26,93a2.744,2.744,0,0,1,.567-1.689A2.378,2.378,0,0,1,91.09,91a1.279,1.279,0,0,1,.3-.229.966.966,0,0,1,.373-.1Z" transform="translate(-77.454 -78.222)" fill="#fff"/>
  </g>
</svg>
