<svg xmlns="http://www.w3.org/2000/svg" width="29" height="29" viewBox="0 0 29 29">
  <g id="image-play-video-detail" transform="translate(-704 -866)">
    <g id="Path_15405" data-name="Path 15405" transform="translate(704 866)" fill="#fff">
      <path d="M 14.5 28 C 10.89402008056641 28 7.503870010375977 26.59576034545898 4.954060077667236 24.04594039916992 C 2.404239892959595 21.49612998962402 1 18.10597991943359 1 14.5 C 1 12.86993980407715 1.290899991989136 11.27931976318359 1.864629983901978 9.772319793701172 C 2.429539918899536 8.288470268249512 3.270970106124878 6.878220081329346 4.365530014038086 5.580739974975586 C 6.777369976043701 2.711940050125122 10.56554985046387 1 14.5 1 C 18.10597991943359 1 21.49612998962402 2.404239892959595 24.04594039916992 4.954060077667236 C 26.59576034545898 7.503870010375977 28 10.89402008056641 28 14.5 C 28 18.10597991943359 26.59576034545898 21.49612998962402 24.04594039916992 24.04594039916992 C 21.49612998962402 26.59576034545898 18.10597991943359 28 14.5 28 Z" stroke="none"/>
      <path d="M 14.5 2 C 10.85717964172363 2 7.355140686035156 3.578670501708984 5.129880905151367 6.225549697875977 C 3.05303955078125 8.687389373779297 2 11.4713191986084 2 14.5 C 2 17.83887100219727 3.300230026245117 20.9778995513916 5.661159515380859 23.33884048461914 C 8.022100448608398 25.69976997375488 11.16113090515137 27 14.5 27 C 17.83887100219727 27 20.9778995513916 25.69976997375488 23.33884048461914 23.33884048461914 C 25.69976997375488 20.9778995513916 27 17.83887100219727 27 14.5 C 27 11.16113090515137 25.69976997375488 8.022100448608398 23.33884048461914 5.661159515380859 C 20.9778995513916 3.300230026245117 17.83887100219727 2 14.5 2 M 14.5 0 C 22.50812911987305 0 29 6.491870880126953 29 14.5 C 29 22.50812911987305 22.50812911987305 29 14.5 29 C 6.491870880126953 29 0 22.50812911987305 0 14.5 C 0 10.94438934326172 1.279779434204102 7.687690734863281 3.601190567016602 4.935930252075195 C 6.063690185546875 2.006870269775391 10.0474796295166 0 14.5 0 Z" stroke="none" fill="#eb048c"/>
    </g>
    <path id="Polygon_1" data-name="Polygon 1" d="M5.724.955a1,1,0,0,1,1.552,0l4.4,5.414A1,1,0,0,1,10.9,8H2.1a1,1,0,0,1-.776-1.631Z" transform="translate(724 874) rotate(90)" fill="#eb048c"/>
  </g>
</svg>
